<svg xmlns="http://www.w3.org/2000/svg"
     version="1.1"
     xmlns:xlink="http://www.w3.org/1999/xlink"
     width="512"
     height="512"
     x="0"
     y="0"
     viewBox="0 0 456.759 456"
     style="enable-background:new 0 0 512 512"
     xml:space="preserve"
     class=""
     id="basket">
    <g>
        <path d="M150.355 322.332c-30.046 0-54.402 24.355-54.402 54.402 0 30.043 24.356 54.399 54.402 54.399 30.043 0 54.399-24.356 54.399-54.399-.031-30.03-24.367-54.37-54.399-54.402zm0 88.8c-19 0-34.402-15.402-34.402-34.398 0-19 15.402-34.402 34.402-34.402 18.997 0 34.399 15.402 34.399 34.402 0 18.996-15.402 34.399-34.399 34.399zM446.855 94.035H93.754l-7.2-40.3C82.118 28.924 62.673 9.52 37.856 5.132L11.754.535C6.313-.434 1.12 3.195.152 8.633a10.008 10.008 0 0 0 8.102 11.601l26.2 4.598a39.995 39.995 0 0 1 32.401 32.402l35.399 199.7c4.18 23.894 24.941 41.324 49.2 41.3h210c22.062.067 41.546-14.375 47.901-35.5l47-155.8c.872-3.04.32-6.313-1.5-8.899a10.127 10.127 0 0 0-8-4zm-56.601 162.797c-3.774 12.688-15.465 21.367-28.7 21.3h-210c-14.566.04-27.034-10.44-29.5-24.8L97.356 113.934h336.098zM360.355 322.332c-30.046 0-54.402 24.355-54.402 54.402 0 30.043 24.356 54.399 54.402 54.399 30.043 0 54.399-24.356 54.399-54.399-.031-30.03-24.367-54.37-54.399-54.402zm0 88.8c-19 0-34.402-15.402-34.402-34.398 0-19 15.402-34.402 34.402-34.402 18.997 0 34.399 15.402 34.399 34.402 0 18.996-15.402 34.399-34.399 34.399zm0 0"
              fill="#222222"
              opacity="1"
              data-original="#000000"
              class="" />
    </g>
</svg>