<svg width="417"
     height="417"
     viewBox="0 0 417 417"
     fill="none"
     xmlns="http://www.w3.org/2000/svg"
     id="location-arrow">
    <path d="M397.158 26.5748L397.178 26.5952L225.523 401.116L225.514 401.135L225.505 401.154C225.414 401.356 225.257 401.521 225.062 401.624C224.866 401.728 224.641 401.763 224.423 401.725C224.204 401.687 224.005 401.577 223.856 401.413C223.807 401.359 223.764 401.3 223.728 401.237C223.772 400.457 223.823 399.453 223.873 398.246C223.999 395.213 224.116 390.884 224.096 385.556C224.054 374.926 223.461 360.197 221.238 343.795C216.879 311.638 205.889 270.174 177.606 241.893C149.382 213.67 107.436 202.1 74.8221 197.185C58.1781 194.677 43.2008 193.794 32.3827 193.534C26.962 193.404 22.5555 193.429 19.4699 193.489C18.0865 193.516 16.9668 193.55 16.1385 193.58C16.0554 193.539 15.9779 193.486 15.9085 193.423C15.7451 193.273 15.6357 193.074 15.5975 192.857C15.5594 192.639 15.5945 192.414 15.6975 192.218C15.8004 192.023 15.9654 191.867 16.1666 191.775L16.1765 191.77L400.176 15.77L400.184 15.7665C400.37 15.6813 400.577 15.6549 400.778 15.691C400.979 15.7271 401.164 15.8238 401.309 15.9682C401.453 16.1125 401.55 16.2977 401.586 16.4987C401.622 16.6996 401.595 16.9068 401.51 17.0925L397.158 26.5748Z"
          stroke="black"
          stroke-width="30" />
</svg>