<?xml version="1.0" encoding="utf-8"?><svg viewBox="0 0 512 512" xmlns="http://www.w3.org/2000/svg" xmlns:xlink="http://www.w3.org/1999/xlink"><style>:root>svg{display:none}:root>svg:target{display:block}</style><svg viewBox="0 0 456.759 456" id="basket" xmlns="http://www.w3.org/2000/svg"><path d="M150.355 322.332c-30.046 0-54.402 24.355-54.402 54.402 0 30.043 24.356 54.399 54.402 54.399 30.043 0 54.399-24.356 54.399-54.399-.031-30.03-24.367-54.37-54.399-54.402zm0 88.8c-19 0-34.402-15.402-34.402-34.398 0-19 15.402-34.402 34.402-34.402 18.997 0 34.399 15.402 34.399 34.402 0 18.996-15.402 34.399-34.399 34.399zm296.5-317.097H93.754l-7.2-40.3C82.118 28.924 62.673 9.52 37.856 5.132L11.754.535C6.313-.434 1.12 3.195.152 8.633a10.008 10.008 0 008.102 11.601l26.2 4.598a39.995 39.995 0 0132.401 32.402l35.399 199.7c4.18 23.894 24.941 41.324 49.2 41.3h210c22.062.067 41.546-14.375 47.901-35.5l47-155.8c.872-3.04.32-6.313-1.5-8.899a10.127 10.127 0 00-8-4zm-56.601 162.797c-3.774 12.688-15.465 21.367-28.7 21.3h-210c-14.566.04-27.034-10.44-29.5-24.8L97.356 113.934h336.098zm-29.899 65.5c-30.046 0-54.402 24.355-54.402 54.402 0 30.043 24.356 54.399 54.402 54.399 30.043 0 54.399-24.356 54.399-54.399-.031-30.03-24.367-54.37-54.399-54.402zm0 88.8c-19 0-34.402-15.402-34.402-34.398 0-19 15.402-34.402 34.402-34.402 18.997 0 34.399 15.402 34.399 34.402 0 18.996-15.402 34.399-34.399 34.399zm0 0" fill="#222" data-original="#000000"/></svg><svg viewBox="0 0 512.02 512.02" id="bottom-triangle" xmlns="http://www.w3.org/2000/svg"><path d="M503.155 74.451a69 69 0 00-61.14-36.1h-372a69.001 69.001 0 00-61.15 36.1 69 69 0 002 71l186 295.55a69.5 69.5 0 0059.15 32.67 69.502 69.502 0 0059.14-32.67l186-295.55a69 69 0 002-71z" data-original="#000000"/></svg><svg viewBox="0 0 22.88 22.88" id="close" xmlns="http://www.w3.org/2000/svg"><path d="M.324 1.909a1.14 1.14 0 010-1.587 1.14 1.14 0 011.587 0l9.523 9.539L20.973.322a1.12 1.12 0 011.571 0 1.112 1.112 0 010 1.587l-9.523 9.524 9.523 9.539a1.112 1.112 0 010 1.587 1.12 1.12 0 01-1.571 0l-9.539-9.539-9.523 9.539a1.14 1.14 0 01-1.587 0c-.429-.444-.429-1.159 0-1.587l9.523-9.539L.324 1.909z" fill="#b3b3b3" data-original="#1e201d"/></svg><svg viewBox="0 0 451.847 451.847" id="left-arrow" xmlns="http://www.w3.org/2000/svg"><path d="M97.141 225.92c0-8.095 3.091-16.192 9.259-22.366L300.689 9.27c12.359-12.359 32.397-12.359 44.751 0 12.354 12.354 12.354 32.388 0 44.748L173.525 225.92l171.903 171.909c12.354 12.354 12.354 32.391 0 44.744-12.354 12.365-32.386 12.365-44.745 0l-194.29-194.281c-6.167-6.177-9.252-14.274-9.252-22.372z" fill="#222" data-original="#000000"/></svg><svg fill="none" viewBox="0 0 417 417" id="location-arrow" xmlns="http://www.w3.org/2000/svg"><path d="M397.158 26.575l.02.02-171.655 374.521-.009.019-.009.019a.995.995 0 01-1.082.571.996.996 0 01-.695-.488c.044-.78.095-1.784.145-2.991.126-3.033.243-7.362.223-12.69-.042-10.63-.635-25.359-2.858-41.761-4.359-32.157-15.349-73.621-43.632-101.902-28.224-28.223-70.17-39.793-102.784-44.708-16.644-2.508-31.621-3.391-42.44-3.651-5.42-.13-9.826-.105-12.912-.045a200.73 200.73 0 00-3.331.091 1.003 1.003 0 01-.541-.723 1.003 1.003 0 01.569-1.082l.01-.005 383.999-176 .008-.003a1 1 0 011.326 1.326l-4.352 9.482z" stroke="#000" stroke-width="30"/></svg><svg viewBox="0 0 512 512" id="user" xmlns="http://www.w3.org/2000/svg"><path d="M437.02 74.98C388.668 26.63 324.379 0 256 0S123.332 26.629 74.98 74.98C26.63 123.332 0 187.621 0 256s26.629 132.668 74.98 181.02C123.332 485.37 187.621 512 256 512s132.668-26.629 181.02-74.98C485.37 388.668 512 324.379 512 256s-26.629-132.668-74.98-181.02zM111.105 429.297c8.454-72.735 70.989-128.89 144.895-128.89 38.96 0 75.598 15.179 103.156 42.734 23.281 23.285 37.965 53.687 41.742 86.152C361.641 462.172 311.094 482 256 482s-105.637-19.824-144.895-52.703zM256 269.507c-42.871 0-77.754-34.882-77.754-77.753C178.246 148.879 213.13 114 256 114s77.754 34.879 77.754 77.754c0 42.871-34.883 77.754-77.754 77.754zm170.719 134.427a175.9 175.9 0 00-46.352-82.004c-18.437-18.438-40.25-32.27-64.039-40.938 28.598-19.394 47.426-52.16 47.426-89.238C363.754 132.34 315.414 84 256 84s-107.754 48.34-107.754 107.754c0 37.098 18.844 69.875 47.465 89.266-21.887 7.976-42.14 20.308-59.566 36.542-25.235 23.5-42.758 53.465-50.883 86.348C50.852 364.242 30 312.512 30 256 30 131.383 131.383 30 256 30s226 101.383 226 226c0 56.523-20.86 108.266-55.281 147.934zm0 0" fill="#222" data-original="#000000"/></svg><svg viewBox="0 0 512 512" id="vk" xmlns="http://www.w3.org/2000/svg"><path fill="#2787f5" d="M0 245.333C0 129.682 0 71.856 35.928 35.928S129.682 0 245.333 0h21.333c115.651 0 173.477 0 209.405 35.928C512 71.856 512 129.682 512 245.333v21.333c0 115.651 0 173.477-35.929 209.405C440.144 512 382.318 512 266.667 512h-21.333c-115.651 0-173.477 0-209.405-35.928C0 440.144 0 382.318 0 266.667z" data-original="#2787f5"/><path fill="#fff" fill-rule="evenodd" d="M138.676 160h-37.342c-10.669 0-12.803 5.022-12.803 10.558 0 9.889 12.66 58.933 58.946 123.798 30.858 44.298 74.333 68.31 113.894 68.31 23.737 0 26.673-5.333 26.673-14.52v-33.48c0-10.667 2.249-12.796 9.764-12.796 5.539 0 15.034 2.769 37.188 24.127 25.319 25.313 29.493 36.669 43.734 36.669h37.342c10.67 0 16.004-5.333 12.927-15.858-3.368-10.49-15.456-25.71-31.497-43.75-8.704-10.284-21.759-21.358-25.715-26.896-5.538-7.119-3.956-10.284 0-16.611 0 0 45.496-64.075 50.243-85.827 2.373-7.911 0-13.724-11.293-13.724h-37.342c-9.494 0-13.872 5.022-16.246 10.558 0 0-18.989 46.276-45.89 76.336-8.704 8.701-12.66 11.47-17.408 11.47-2.373 0-5.809-2.769-5.809-10.678v-73.962c0-9.493-2.755-13.724-10.669-13.724h-58.68c-5.933 0-9.502 4.405-9.502 8.581 0 8.998 13.451 11.074 14.837 36.387v54.978c0 12.053-2.178 14.239-6.925 14.239-12.659 0-43.453-46.483-61.716-99.672C151.81 164.176 148.22 160 138.676 160z" clip-rule="evenodd" data-original="#ffffff"/></svg></svg>